<?xml version="1.0" encoding="utf-8"?>
<!-- Generator: Adobe Illustrator 24.0.2, SVG Export Plug-In . SVG Version: 6.00 Build 0)  -->
<svg version="1.1" id="图层_1" xmlns="http://www.w3.org/2000/svg" xmlns:xlink="http://www.w3.org/1999/xlink" x="0px" y="0px"
	 viewBox="0 0 35.7 36" style="enable-background:new 0 0 35.7 36;" xml:space="preserve">
<style type="text/css">
	.st0{opacity:0.5;}
	.st1{fill:url(#SVGID_1_);}
	.st2{fill:#FFFFFF;}
</style>
<g class="st0">
	
		<linearGradient id="SVGID_1_" gradientUnits="userSpaceOnUse" x1="2.3607" y1="14.3731" x2="35.2759" y2="22.9198" gradientTransform="matrix(1 0 0 -1 0 36.7355)">
		<stop  offset="0" style="stop-color:#F7C294"/>
		<stop  offset="0.88" style="stop-color:#EB728C"/>
		<stop  offset="1" style="stop-color:#EA678C"/>
	</linearGradient>
	<path class="st1" d="M23.9,0.3L5.7,5C1.6,6-0.8,10.2,0.2,14.2l2.3,8.9c0.8,3,3.2,5.1,6.1,5.5c1.4,0.3,2.6,1.4,3,2.8l1,3.8
		c0.1,0.4,0.4,0.7,0.8,0.7c0.1,0,0.3,0,0.4,0c0.3-0.1,0.5-0.2,0.6-0.5l3-5c1.5-2.5,4-4.4,6.8-5.1l5.8-1.5c4.1-1.1,6.5-5.2,5.5-9.3
		l-2.3-8.9C32.1,1.6,27.9-0.8,23.9,0.3L23.9,0.3z"/>
	<path class="st2" d="M19.6,9.4c0.7-0.2,1.5-0.1,2.1,0.3c0.6,0.4,1.1,1,1.3,1.7s0.1,1.5-0.3,2.1l-3.5,5.9l-5.9-3.5
		c-1.3-0.8-1.8-2.5-1-3.8c0.4-0.6,1-1.1,1.7-1.3c0.7-0.2,1.5-0.1,2.1,0.3c0.3,0.2,0.7,0.2,1,0.1c0.3-0.1,0.6-0.3,0.8-0.6
		C18.2,10,18.8,9.6,19.6,9.4 M19.2,8.1c-1.1,0.3-2,0.9-2.5,1.9c-1-0.6-2.1-0.7-3.1-0.4s-1.9,0.9-2.5,1.9c-1.2,1.9-0.5,4.5,1.5,5.6
		l6.2,3.6c0.2,0.1,0.5,0.2,0.8,0.1c0.2-0.1,0.5-0.2,0.6-0.5l3.7-6.2c0.6-0.9,0.7-2,0.4-3.1C24,9.9,23.3,9,22.3,8.5
		C21.4,8,20.3,7.8,19.2,8.1L19.2,8.1z"/>
</g>
</svg>
