<?xml version="1.0" encoding="utf-8"?>
<!-- Generator: Adobe Illustrator 24.0.2, SVG Export Plug-In . SVG Version: 6.00 Build 0)  -->
<svg version="1.1" id="图层_1" xmlns="http://www.w3.org/2000/svg" xmlns:xlink="http://www.w3.org/1999/xlink" x="0px" y="0px"
	 viewBox="0 0 45.2 49.7" style="enable-background:new 0 0 45.2 49.7;" xml:space="preserve">
<style type="text/css">
	.st0{opacity:0.5;}
	.st1{fill:url(#SVGID_1_);}
	.st2{fill:none;stroke:#FFFFFF;stroke-width:2;stroke-linecap:round;stroke-linejoin:round;}
</style>
<g class="st0">
	
		<linearGradient id="SVGID_1_" gradientUnits="userSpaceOnUse" x1="1.6881" y1="17.6675" x2="44.0611" y2="32.818" gradientTransform="matrix(1 0 0 -1 0 47.197)">
		<stop  offset="0" style="stop-color:#52B4FE"/>
		<stop  offset="1" style="stop-color:#574FFF"/>
	</linearGradient>
	<path class="st1" d="M35.6,10.3l-8.5,3L27,7.7c-0.1-3.6-2.6-6.7-6-7.6c-2.6-0.6-5.3,0.9-6,3.5l-4.4,16.2c-0.5-0.2-1-0.2-1.5-0.1
		l-7.7,2.8c-1.1,0.4-1.6,1.6-1.2,2.6l8.3,23.2c0.4,1.1,1.6,1.6,2.6,1.2l7.7-2.8c1.1-0.4,1.6-1.6,1.2-2.6l-0.1-0.3l3.4,0.9
		c0.4,0.1,0.8,0.1,1.2-0.1l17.3-6.2c0.7-0.3,1.2-0.9,1.3-1.7l2-16.6c0.2-1.3,0-2.7-0.4-4l-0.7-2C42.8,10.8,39,9.1,35.6,10.3
		L35.6,10.3z"/>
	<path class="st2" d="M33.9,24.3c1.3,3.6-0.6,7.6-4.2,8.9C26,34.6,22,32.7,20.7,29"/>
</g>
</svg>
